<svg id="Layer_1" data-name="Layer 1" xmlns="http://www.w3.org/2000/svg" xmlns:xlink="http://www.w3.org/1999/xlink" viewBox="0 0 100 60"><defs><style>.cls-1{fill:none;}.cls-2{clip-path:url(#clip-path);}.cls-3{fill:#fff;}.cls-4{fill:#bc0030;}.cls-5{fill:#f0c727;}.cls-6{fill:#f4d134;}</style><clipPath id="clip-path"><rect class="cls-1" width="100" height="60"/></clipPath></defs><title>Flags</title><g id="EGYPT"><g class="cls-2"><rect y="40" width="100" height="20"/><g class="cls-2"><path d="M100.1,60.1H-.09V39.91H100.1V60.1Zm-100-.2h99.8V40.1H.11V59.9Z"/></g><rect class="cls-3" y="20" width="100" height="19.99"/><g class="cls-2"><path class="cls-3" d="M100.1,40.1H-.09V19.9H100.1V40.1Zm-100-.19h99.8V20.11H.11v19.8Z"/></g><rect class="cls-4" width="100" height="20"/><g class="cls-2"><path class="cls-4" d="M100.1,20.11H-.09V-.1H100.1V20.11ZM.11,19.9h99.8V.11H.11V19.9Z"/><path class="cls-3" d="M49.45,39.48A19.23,19.23,0,0,0,54.26,39c.46-.07.46-.32.46-.63.45-.16.22-.71.53-.71-.31.1-.39-.55-.77-.45,0-.56-.54-.64-1-.48a14.9,14.9,0,0,1-4,.38,18.61,18.61,0,0,1-4.05-.38c-.45-.16-1-.08-1,.48-.38-.1-.46.55-.77.45.31,0,.09.55.53.71,0,.31,0,.56.48.63a18.89,18.89,0,0,0,4.79.47Z"/><path class="cls-5" d="M49.45,39.68a20,20,0,0,1-4.85-.46.65.65,0,0,1-.61-.7.73.73,0,0,1-.32-.55l0-.09h0a.23.23,0,0,1-.15-.23.2.2,0,0,1,.2-.17h0s.11-.09.16-.14a.72.72,0,0,1,.4-.32c.1-.47.64-.65,1.21-.47a13.15,13.15,0,0,0,3.18.35l.82,0a13.72,13.72,0,0,0,4-.38c.58-.19,1.12,0,1.21.49a.72.72,0,0,1,.4.3c.05,0,.11.13.13.14h.07a.19.19,0,0,1,.19.17.21.21,0,0,1-.14.23l0,0,0,0h0s0,0,0,.09a.78.78,0,0,1-.33.55.64.64,0,0,1-.6.7,20.15,20.15,0,0,1-4.85.46ZM44,37.76a.29.29,0,0,1,0,.14c0,.17.05.25.19.3a.18.18,0,0,1,.13.18c0,.31,0,.39.31.45a19.09,19.09,0,0,0,4.77.46,18.91,18.91,0,0,0,4.75-.46c.32-.06.32-.14.32-.45a.2.2,0,0,1,.13-.18c.15-.05.17-.13.21-.3a.49.49,0,0,1,0-.14,1.15,1.15,0,0,0-.14-.17c-.09-.13-.14-.19-.2-.19a.22.22,0,0,1-.18,0,.2.2,0,0,1-.08-.13c0-.1,0-.36-.39-.36a.91.91,0,0,0-.35.07,14.62,14.62,0,0,1-4.1.38l-.83,0a14,14,0,0,1-3.27-.36,1,1,0,0,0-.35-.07c-.39,0-.39.26-.39.36a.17.17,0,0,1-.08.13.14.14,0,0,1-.15,0c-.1,0-.15.06-.24.19a1.77,1.77,0,0,1-.14.17Z"/><path class="cls-6" d="M45.1,37.52c-.15,0-.15.09,0,.09a0,0,0,1,0,0-.09Z"/><path class="cls-5" d="M45.1,37.72c-.2,0-.21-.13-.21-.15s.13-.16.21-.16a.2.2,0,0,1,.15.16s-.09.15-.15.15Z"/><path class="cls-6" d="M45.1,37.22c-.08,0-.08.14,0,.14s.15-.14,0-.14Z"/><path class="cls-5" d="M45.1,37.46c-.05,0-.15-.12-.15-.17s.1-.18.15-.18a.2.2,0,0,1,.22.18c0,.08-.07.17-.22.17Z"/><path class="cls-6" d="M45.1,38.38c-.08,0-.08.16,0,.16s.07-.16,0-.16Z"/><path class="cls-5" d="M45.1,38.64c-.05,0-.15-.12-.15-.18s.1-.19.15-.19.15.13.15.19-.09.18-.15.18Z"/><path class="cls-6" d="M45.4,38.46c-.15,0-.15.16,0,.16s.09-.16,0-.16Z"/><path class="cls-5" d="M45.4,38.73a.19.19,0,0,1-.2-.18.2.2,0,0,1,.2-.18c.06,0,.17.13.17.18a.19.19,0,0,1-.17.18Z"/><path class="cls-6" d="M45.7,38.54c-.06,0-.06.15,0,.15s.16-.15,0-.15Z"/><path class="cls-5" d="M45.7,38.8s-.14-.12-.14-.19.1-.17.14-.17a.21.21,0,0,1,.23.17.21.21,0,0,1-.23.19Z"/><path class="cls-6" d="M50.45,37.77a.07.07,0,0,0,0,.14c.06,0,.06-.14,0-.14Z"/><path class="cls-5" d="M50.45,38c-.07,0-.17-.12-.17-.18s.1-.19.17-.19.15.13.15.19-.1.18-.15.18Z"/><path class="cls-6" d="M50.51,38.07c-.15,0-.15.07,0,.07s.09-.07,0-.07Z"/><path class="cls-1" d="M50.51,38.07c-.15,0-.15.07,0,.07S50.6,38.07,50.51,38.07Z"/><path class="cls-6" d="M50.75,38.85c-.08,0-.08.16,0,.16s.07-.16,0-.16Z"/><path class="cls-5" d="M50.75,39.13c-.07,0-.15-.13-.15-.2s.08-.19.15-.19.15.13.15.19-.1.2-.15.2Z"/><path class="cls-6" d="M51.06,38.85c-.16,0-.16.16,0,.16s.06-.16,0-.16Z"/><path class="cls-5" d="M51.06,39.13a.2.2,0,0,1-.23-.2.21.21,0,0,1,.23-.19s.15.13.15.19-.08.2-.15.2Z"/><path class="cls-6" d="M54.18,38.22c-.15,0-.15.1,0,.1s.08-.1,0-.1Z"/><path class="cls-5" d="M54.18,38.42c-.21,0-.21-.12-.21-.15s.12-.15.21-.15.16.09.16.15-.11.15-.16.15Z"/><path class="cls-5" d="M45.93,38.52a.52.52,0,0,1-.18,0,.65.65,0,0,1-.22-.11.6.6,0,0,1-.24-.05.34.34,0,0,1-.22-.36,2.71,2.71,0,0,0,.18-.6l.06-.19a.09.09,0,0,1,.12-.06.08.08,0,0,1,.07.11l0,.2a2.74,2.74,0,0,1-.18.6s0,.09,0,.09l.16.06a.75.75,0,0,1,0-.16c0-.14,0-.23.11-.25l.07.13h0a.34.34,0,0,1,0,.09v0a.8.8,0,0,1,0,.19s0,0,.13.06a.23.23,0,0,0,.15,0s.07-.11.1-.27l0,0-.1-.13a.16.16,0,0,1,.15,0s.12.14.12.18a.6.6,0,0,1-.2.42.22.22,0,0,1-.13,0Z"/><path class="cls-5" d="M45.32,38.33h0c-.24-.07-.38-.2-.38-.35s.07-.2.32-.25a.14.14,0,0,1,.13.09c0,.06,0,.09-.09.11s-.15.07-.15.07a.38.38,0,0,0,.22.12.12.12,0,0,1,.07.13.09.09,0,0,1-.1.08Z"/><path class="cls-5" d="M47.52,39a.35.35,0,0,1-.14-.06s-.17,0-.17-.3a.35.35,0,0,1-.17-.06.77.77,0,0,1-.55,0,.54.54,0,0,1-.19.18c-.07,0-.13,0-.14,0a.1.1,0,0,1,.05-.14.35.35,0,0,0,.13-.11.33.33,0,0,1,0-.17.23.23,0,0,1,0-.23.23.23,0,0,1,.28.18.34.34,0,0,1,0,.15.57.57,0,0,0,.31,0,.29.29,0,0,1,0-.34.27.27,0,0,1,.36-.16.28.28,0,0,1,.18.3.29.29,0,0,1-.13.26l.12.08c.06.2.08.2.11.2h0s.12-.13.12-.28v-.69c0-.12.21-.12.21,0v.69a.63.63,0,0,1-.24.51Z"/><path class="cls-5" d="M47.93,38.73a.12.12,0,0,1-.12-.11,3.23,3.23,0,0,1,.06-.46,1.89,1.89,0,0,0,0-.39c0-.12.21-.12.21,0a4,4,0,0,1,0,.43c0,.16,0,.32,0,.42a.1.1,0,0,1-.09.11Z"/><path class="cls-5" d="M48.15,39.19a.11.11,0,0,1-.07,0,.11.11,0,0,1,0-.16c.15-.12.22-.2.24-.3s-.08-.07-.11-.09a.31.31,0,0,1,0-.24.26.26,0,0,1,.16-.07c.07,0,.15.08.19.21s0,.05,0,.07h.07s0,0,0-.14-.06-.06-.06-.12.08-.18.13-.18.11.08.14.13H49a.7.7,0,0,0,.54,0c.18,0,.24.09.24.31a1.54,1.54,0,0,1-.05.17c0,.14-.1.24-.19.26a.27.27,0,0,1-.24-.12c0-.11,0-.13-.15-.13h-.62a.83.83,0,0,1-.31.38.12.12,0,0,1-.07,0Zm.68-.61h.32c.28,0,.32.17.32.27l.08-.16a.38.38,0,0,0,0-.17,1.07,1.07,0,0,1-.62,0h-.09a.24.24,0,0,1,0,.09Z"/><path class="cls-5" d="M50,38.8a.06.06,0,0,1-.06,0,.23.23,0,0,0-.15,0c-.06,0-.15,0-.15-.1s0-.11.06-.11v.11l.05-.12h.11a.25.25,0,0,1,.07-.2.19.19,0,0,1,.25-.06.25.25,0,0,1,.15.24c0,.15-.22.26-.33.26Z"/><path class="cls-5" d="M50.6,38.77h-.09a.18.18,0,0,1-.09-.14.53.53,0,0,1,.27-.22,1.88,1.88,0,0,0,0-.61.1.1,0,0,1,.06-.13.11.11,0,0,1,.13.09,1.85,1.85,0,0,1,.06.71l.16.06c.07,0,.11,0,.12-.18s-.11-.16-.09-.2a.16.16,0,0,1,.16-.07s.13.11.13.15,0,.05,0,.08a0,0,0,0,1,0,0c0,.3-.09.4-.31.4a.29.29,0,0,1-.25,0s0,0,0,0a.29.29,0,0,1-.2.08Z"/><path class="cls-5" d="M51.51,39a.06.06,0,0,1-.06,0s0-.11,0-.14a.94.94,0,0,0,.16-.28.28.28,0,0,1-.2-.26s0-.19.1-.24.2.06.29.16a.75.75,0,0,1-.21.76.1.1,0,0,1-.08,0Z"/><path class="cls-5" d="M52.05,38.88a.12.12,0,0,1-.1-.06c0-.06,0-.13.06-.14a.21.21,0,0,0,.14-.11c-.16,0-.23-.06-.24-.14a.31.31,0,0,1,.15-.3.65.65,0,0,1,.18,0,.31.31,0,0,1,.14.28,2.92,2.92,0,0,0,.9-.31.09.09,0,0,1,.14,0c0,.06,0,.12,0,.14a2.2,2.2,0,0,1-1,.34.42.42,0,0,1-.28.31Z"/><path class="cls-5" d="M53,38.58l-.11,0a.7.7,0,0,1-.14-.3.32.32,0,0,0,0,.12.11.11,0,0,1-.21,0,.46.46,0,0,1,.16-.37s0,0,0-.07l-.07-.3s0-.12.06-.13.12,0,.14.08l.07.31s0,0,0,0A.3.3,0,0,1,53,38a.31.31,0,0,1,.19.27.27.27,0,0,1-.05.29.29.29,0,0,1-.2.07Z"/><path class="cls-5" d="M53.53,38.38a.29.29,0,0,1-.29-.2.53.53,0,0,1,0-.18.44.44,0,0,1,.62-.09.34.34,0,0,1,0,.3.47.47,0,0,1-.33.17Z"/><path class="cls-1" d="M53.79,38.07l.24-.16Z"/><path class="cls-5" d="M54.17,38.09l-.13,0c-.17-.1-.26-.32-.26-.71,0-.07,0-.13-.08-.13s-.15,0-.2.05a.14.14,0,0,1-.15,0s0-.11,0-.13a.4.4,0,0,1,.44-.12.34.34,0,0,1,.18.33c0,.34.09.49.16.54h.1v0c0-.05.13-.17.19-.15s.08.15.08.18a.46.46,0,0,1-.34.18Z"/><path class="cls-3" d="M49.53,30.49l6.56,6.25-.47-11.37c-.07-1.73-1.53-1.34-2.59-.72a3.79,3.79,0,0,1-3.58.25,3.81,3.81,0,0,1-3.59-.25c-1-.62-2.51-1-2.58.72L42.8,36.74Z"/><path class="cls-5" d="M42.8,36.84h0a.13.13,0,0,1,0-.11l.46-11.37c0-1.11.64-1.35,1.12-1.35a3.77,3.77,0,0,1,1.63.54,3.76,3.76,0,0,0,3.5.24A3.83,3.83,0,0,0,53,24.55,3.82,3.82,0,0,1,54.59,24c.5,0,1.09.24,1.13,1.35l.47,11.37a.13.13,0,0,1,0,.11.15.15,0,0,1-.13,0l-6.48-6.2-6.66,6.2s0,0-.07,0Zm1.49-12.61c-.58,0-.88.37-.91,1.14L42.93,36.5l6.53-6.09c0-.05.09-.05.14,0L56,36.5l-.46-11.13c-.05-1.3-1-1.45-2.43-.63a4,4,0,0,1-3.67.26,3.88,3.88,0,0,1-3.61-.26,3.32,3.32,0,0,0-1.52-.51Z"/><path class="cls-3" d="M50.51,25.28a1.78,1.78,0,0,0,1,.24,3.35,3.35,0,0,1-.91-2.67c.15-1.25-.15-2-.91-2.12a4.34,4.34,0,0,0-.54-.08c-.23-.07-.42.16-.5.31-.23-.15-.42-.06-.65-.23s-.62,0-.62.55l.16-.06c.07,0,.19.09.36.17a1.15,1.15,0,0,1,.56.83,3.51,3.51,0,0,1-1.08,3.3,1.72,1.72,0,0,0,1-.24,2.42,2.42,0,0,1-.37.48,1.37,1.37,0,0,0,1.06-.63c.09.15.3.39.39.55.09-.16.3-.4.39-.55a1.39,1.39,0,0,0,1.06.63,3.49,3.49,0,0,1-.39-.48Z"/><path class="cls-5" d="M47.72,25.91l.22-.22a1.17,1.17,0,0,1,.15-.16,2.21,2.21,0,0,1-.71.09h-.24l.19-.18a3.38,3.38,0,0,0,1-3.21.88.88,0,0,0-.42-.68l-.11-.07a1.1,1.1,0,0,0-.31-.16l-.22.11v-.15c0-.63.45-.75.74-.64a.82.82,0,0,0,.3.12.93.93,0,0,1,.29.07.58.58,0,0,1,.43-.3,1.86,1.86,0,0,1,.48.08.36.36,0,0,0,.15,0c.82.18,1.15.92,1,2.25a3.27,3.27,0,0,0,.88,2.55l.26.19h-.31a2.1,2.1,0,0,1-.69-.09l.14.17.22.19-.3,0a1.58,1.58,0,0,1-1-.55c0,.05-.08.09-.12.15a2.09,2.09,0,0,0-.18.25l-.09.16-.09-.16c0-.07-.11-.15-.17-.25s-.09-.1-.13-.15a1.58,1.58,0,0,1-1,.55l-.3.05Zm2.11-1,.09.14a1.1,1.1,0,0,0,.69.49,2.46,2.46,0,0,1-.16-.24l.12-.14a1.46,1.46,0,0,0,.68.2,3.64,3.64,0,0,1-.75-2.55c.14-1.22-.14-1.88-.83-2-.06,0-.12,0-.19,0a1.48,1.48,0,0,0-.36,0,.48.48,0,0,0-.39.25l0,.1-.08-.05a.46.46,0,0,0-.29-.11.83.83,0,0,1-.37-.13.34.34,0,0,0-.46.31h0a.84.84,0,0,1,.38.14l.17.12a1.06,1.06,0,0,1,.51.82,3.62,3.62,0,0,1-.93,3.19,1.42,1.42,0,0,0,.71-.2l.13.14a1.35,1.35,0,0,1-.18.24,1.07,1.07,0,0,0,.7-.49l.09-.14.08.14a2.09,2.09,0,0,0,.18.25,1,1,0,0,1,.12.16l.12-.16.18-.25.08-.14Z"/><path class="cls-5" d="M50.57,25.46a.14.14,0,0,1-.1-.06A3.52,3.52,0,0,1,50,23.79c0-.11.21-.11.21,0a3.12,3.12,0,0,0,.42,1.52.11.11,0,0,1,0,.14Z"/><path class="cls-5" d="M49.84,25.24a.12.12,0,0,1-.09,0,2.84,2.84,0,0,1-.25-1.4c0-.11.21-.11.21,0a2.78,2.78,0,0,0,.21,1.29.1.1,0,0,1,0,.14.06.06,0,0,1,0,0Z"/><path class="cls-5" d="M48.33,25.46h0a.11.11,0,0,1,0-.14,3.13,3.13,0,0,0,.42-1.52c0-.11.2-.11.2,0a3.29,3.29,0,0,1-.44,1.61.1.1,0,0,1-.09.06Z"/><path class="cls-5" d="M49.06,25.24a.06.06,0,0,1-.05,0,.11.11,0,0,1,0-.14,2.73,2.73,0,0,0,.23-1.29c0-.11.2-.11.2,0a3,3,0,0,1-.24,1.4.12.12,0,0,1-.1,0Z"/><path class="cls-5" d="M47.44,21.21c.16,0,.22.07.46.18a1.12,1.12,0,0,1,.56.77c-.09-.25.07-.48.23-.4a1,1,0,0,0-1.25-.55Z"/><path class="cls-5" d="M48.46,22.19l-.05,0h0a.25.25,0,0,1,0-.1h0a1,1,0,0,0-.52-.62l-.08-.1,0,0a.6.6,0,0,0-.32-.12c.06-.14.17-.15.29-.15a1.08,1.08,0,0,1,1,.63s0,0,0,0h-.06a.26.26,0,0,0-.14.26,0,0,0,0,1,0,0,.41.41,0,0,1,0,.08,0,0,0,0,1,0,0Zm-.86-1a.85.85,0,0,1,.21.07l.1.08a1.07,1.07,0,0,1,.5.5s.05-.08.07-.08a.18.18,0,0,1,.15-.09,1.05,1.05,0,0,0-1-.48Z"/><polygon class="cls-5" points="49.75 31.74 50.67 36.03 50.36 36.36 50.05 36.1 49.54 32.26 49.75 36.1 49.45 36.51 49.15 36.1 49.36 32.26 48.84 36.1 48.53 36.36 48.23 36.03 49.15 31.74 49.75 31.74"/><path class="cls-5" d="M49.45,36.64l-.37-.47.1-1.85-.25,1.8-.35.3-.42-.33.9-4.38.69-.08,1,4.38-.32.41L50,36.18l-.27-1.89.11,1.82-.39.53Zm0-4.31-.22,3.78.22.26.24-.31-.24-3.73Zm.22-.58-.52.07-.83,4.24.27.22.2-.25.5-3.78h.32l.53,3.84.28.18.19-.31-.94-4.21Z"/><path class="cls-5" d="M44,25,43.58,36l-.78.71.48-11.37A2,2,0,0,1,44,25Z"/><path class="cls-5" d="M45,25.76,44.57,35l-.77.81.47-10.7c.15.15.6.55.68.63Z"/><path class="cls-5" d="M45.79,26.47l-.3,7.72-.62.62L45.25,26c.15.16.45.38.54.47Z"/><path class="cls-5" d="M46.7,26.86l-.3,6.58-.61.5.3-7.32a2.75,2.75,0,0,0,.61.24Z"/><path class="cls-5" d="M47.54,26.86l-.22,5.5L46.7,33l.23-6c.15,0,.54,0,.61-.08Z"/><path class="cls-5" d="M54.86,25,55.32,36l.77.71-.47-11.37a2,2,0,0,0-.76-.41Z"/><path class="cls-5" d="M53.94,25.76,54.33,35l.77.7-.47-10.59c-.15.15-.6.55-.69.63Z"/><path class="cls-5" d="M53.11,26.47l.31,7.72.61.49L53.64,26c-.15.16-.45.38-.53.47Z"/><path class="cls-5" d="M52.2,26.86l.31,6.46.6.51-.3-7.21a2.57,2.57,0,0,1-.61.24Z"/><path class="cls-5" d="M51.36,26.86l.23,5.5.61.61-.24-6c-.15,0-.54,0-.6-.08Z"/><polygon class="cls-3" points="47.38 29.84 45.56 36.51 48.08 36.9 49.15 31.88 47.38 29.84"/><path class="cls-5" d="M48.08,37h0l-2.52-.39s-.06,0-.07-.05a.08.08,0,0,1,0-.06l1.84-6.68s0-.07.06-.07a.16.16,0,0,1,.1,0l1.76,2.06-1,5.1s-.06.07-.1.07Zm-2.4-.57,2.31.37,1.06-4.93L47.43,30l-1.75,6.4Z"/><polygon class="cls-3" points="51.51 29.84 53.34 36.51 50.82 36.9 49.75 31.88 51.51 29.84"/><path class="cls-5" d="M50.82,37a.08.08,0,0,1-.08-.07l-1.09-5,1.8-2.13a.11.11,0,0,1,.08,0,.08.08,0,0,1,.07.07l1.84,6.68a.08.08,0,0,1,0,.06l-.07.05L50.84,37Zm.65-7-1.64,1.9,1.07,4.85,2.31-.37L51.47,30Z"/><path class="cls-5" d="M47,32.75h0a.08.08,0,0,1-.08-.07l-.22-.54a.1.1,0,0,1,.05-.13.11.11,0,0,1,.14.05l.16.41.58-.66a.08.08,0,0,1,.13,0s.06.08,0,.13l-.69.79-.06,0Z"/><path class="cls-5" d="M47.85,33.22h0s-.08,0-.08-.08L47.51,31a.12.12,0,0,1,.1-.12s.1,0,.11.09l.21,1.93.6-.8a.1.1,0,0,1,.14,0,.12.12,0,0,1,0,.15l-.75,1a.2.2,0,0,1-.09,0Z"/><path class="cls-5" d="M48.76,33.78a.13.13,0,0,1-.1-.06l-.44-1.19a.09.09,0,0,1,.05-.12.09.09,0,0,1,.13.06l.46,1.16c0,.06,0,.12-.06.14Z"/><path class="cls-5" d="M48.08,34.72h0a.14.14,0,0,1-.07-.06l-.32-1-.25.49s-.07.08-.09.06a.14.14,0,0,1-.1-.07L47,33.46,46.4,34a.11.11,0,0,1-.15,0,.12.12,0,0,1,0-.15l.67-.63s.06,0,.09,0a.07.07,0,0,1,.07.06l.24.57.27-.53a.15.15,0,0,1,.1,0,.08.08,0,0,1,.09.06l.33,1.1.51-.53a.12.12,0,0,1,.14,0,.15.15,0,0,1,0,.16l-.63.63a.11.11,0,0,1-.06,0Z"/><path class="cls-5" d="M48.32,36.14a.12.12,0,0,1-.12-.08l-.19-1-.46.61a.09.09,0,0,1-.1,0s-.07,0-.08-.08l-.24-.76-.43.55s0,0-.08,0a.31.31,0,0,1-.09-.07l-.46-1.18a.1.1,0,0,1,0-.13c.05,0,.11,0,.13.06l.41,1,.43-.58a.15.15,0,0,1,.09,0s.08,0,.09.08l.24.76.48-.64a.11.11,0,0,1,.11,0,.2.2,0,0,1,.08.08L48.4,36a.11.11,0,0,1-.07.13Z"/><path class="cls-5" d="M47.69,37h0a.06.06,0,0,1-.06-.06l-.24-.73-.34.6a.07.07,0,0,1-.1,0,.08.08,0,0,1-.08-.06l-.32-.87-.35.51a.12.12,0,0,1-.14,0,.14.14,0,0,1,0-.16l.45-.63a.12.12,0,0,1,.1,0,.1.1,0,0,1,.08.07l.31.84.35-.61a.12.12,0,0,1,.1,0,.1.1,0,0,1,.08.06l.27.81.34-.3a.1.1,0,0,1,.15,0c0,.05,0,.11,0,.13l-.48.41-.06,0Z"/><path class="cls-5" d="M51.9,32.75a.15.15,0,0,1-.08,0l-.69-.79a.09.09,0,0,1,0-.13.08.08,0,0,1,.14,0l.58.66.16-.41a.1.1,0,0,1,.14-.05s.08.07.05.13l-.22.54a.08.08,0,0,1-.08.07Z"/><path class="cls-5" d="M51.06,33.22l-.09,0-.76-1a.11.11,0,0,1,0-.15.09.09,0,0,1,.14,0l.62.8.2-1.93c0-.06,0-.11.1-.09a.1.1,0,0,1,.09.12l-.2,2.19a.2.2,0,0,1-.08.08Z"/><path class="cls-5" d="M50.14,33.78h0a.1.1,0,0,1-.06-.14l.46-1.16a.09.09,0,0,1,.13-.06.09.09,0,0,1,0,.12l-.44,1.19a.15.15,0,0,1-.1.06Z"/><path class="cls-5" d="M50.82,34.72l-.07,0-.6-.63a.12.12,0,0,1,0-.16.12.12,0,0,1,.14,0l.48.52L51,33.33a.08.08,0,0,1,.08-.06.09.09,0,0,1,.1,0l.35.55.24-.59a.09.09,0,0,1,.06-.06s.07,0,.1,0l.68.63a.1.1,0,0,1,0,.15.1.1,0,0,1-.14,0l-.59-.53-.26.65a.1.1,0,0,1-.08.07.1.1,0,0,1-.09,0l-.32-.51-.25,1s0,.06-.08.08Z"/><path class="cls-5" d="M50.6,36.14h0A.11.11,0,0,1,50.5,36l.22-1.19s0-.07.08-.08a.08.08,0,0,1,.1,0l.49.63.24-.76s0-.06.08-.08a.13.13,0,0,1,.1,0l.43.58.39-1c0-.06.09-.1.14-.06a.1.1,0,0,1,.06.13l-.46,1.18a.27.27,0,0,1-.08.07.12.12,0,0,1-.1,0l-.42-.55-.25.76s0,.08-.07.08a.08.08,0,0,1-.1,0l-.46-.61-.2,1a.09.09,0,0,1-.09.08Z"/><path class="cls-5" d="M51.21,37l-.07,0-.46-.41s0-.08,0-.13a.1.1,0,0,1,.15,0l.36.3.24-.81a.12.12,0,0,1,.09-.06s.09,0,.1,0l.35.61.3-.84s0-.07.08-.07a.1.1,0,0,1,.1,0l.45.63a.11.11,0,1,1-.16.14l-.34-.51-.32.87a.08.08,0,0,1-.08.06.07.07,0,0,1-.1,0l-.34-.59-.23.72a.1.1,0,0,1-.07.06Z"/><path class="cls-3" d="M49.45,26a4.05,4.05,0,0,0,2.9.86c-.08,2.74-.84,4.62-2.9,6-2.07-1.42-2.82-3.3-2.9-6a4.05,4.05,0,0,0,2.9-.86Z"/><path class="cls-5" d="M49.45,33H49.4c-2-1.37-2.84-3.19-2.92-6.11a.75.75,0,0,1,.39-.06h0a3.92,3.92,0,0,0,2.53-.87,4.42,4.42,0,0,0,2.94.86c0,3-.88,4.81-2.85,6.18Zm-2.9-6c.15,2.77,1,4.54,2.9,5.87,1.9-1.33,2.75-3.1,2.83-6,0,.09-.14.09-.24.09a4.14,4.14,0,0,1-2.64-.9,3.61,3.61,0,0,1-2.53.9h-.32Z"/><path class="cls-5" d="M49.45,32.57a6.53,6.53,0,0,0,2.6-5.48,4,4,0,0,1-2.6-.78,4.17,4.17,0,0,1-2.67.78,6.76,6.76,0,0,0,2.67,5.48Z"/><path class="cls-5" d="M49.45,32.68H49.4a6.93,6.93,0,0,1-2.71-5.57.11.11,0,0,1,0-.08.07.07,0,0,1,.06,0,4.08,4.08,0,0,0,2.61-.75.08.08,0,0,1,.12,0,3.9,3.9,0,0,0,2.54.74.13.13,0,0,1,.07,0,.11.11,0,0,1,0,.08,6.72,6.72,0,0,1-2.65,5.57Zm-2.57-5.51a6.83,6.83,0,0,0,2.57,5.31A6.49,6.49,0,0,0,52,27.17a4.07,4.07,0,0,1-2.5-.73,4.24,4.24,0,0,1-2.57.73Z"/><path class="cls-3" d="M46.85,36.51a7.71,7.71,0,0,0,1.84.07c.31,0,.52.54-.07.64a6.9,6.9,0,0,1-1.84-.1c-.38-.07-1.22-.22-1.76-.38a.32.32,0,1,1,.15-.63,11.23,11.23,0,0,0,1.68.4Z"/><path class="cls-5" d="M48.09,37.34a7.67,7.67,0,0,1-1.32-.11c-.37-.07-1.23-.24-1.77-.39-.37-.16-.36-.39-.34-.48A.48.48,0,0,1,45.1,36a10.84,10.84,0,0,0,1.77.4,8.14,8.14,0,0,0,1.81.1h0a.43.43,0,0,1,.42.38c0,.18-.12.38-.47.43a3,3,0,0,1-.54,0Zm-3-1.13a.29.29,0,0,0-.28.18c0,.13.12.21.2.25A17.12,17.12,0,0,0,46.8,37a6.86,6.86,0,0,0,1.79.09c.2,0,.31-.12.3-.23a.22.22,0,0,0-.2-.2,7.08,7.08,0,0,1-1.85-.08,9.08,9.08,0,0,1-1.7-.39Z"/><path class="cls-3" d="M52.05,36.51a7.73,7.73,0,0,1-1.84.07c-.31,0-.52.54.07.64a6.92,6.92,0,0,0,1.84-.1c.39-.07,1.22-.22,1.76-.38a.32.32,0,1,0-.15-.63,10.94,10.94,0,0,1-1.68.4Z"/><path class="cls-5" d="M50.81,37.34a2.79,2.79,0,0,1-.53,0c-.37,0-.49-.25-.47-.43a.42.42,0,0,1,.4-.38,8.09,8.09,0,0,0,1.82-.1A9.06,9.06,0,0,0,53.69,36a.45.45,0,0,1,.54.35c0,.09,0,.32-.31.48-.56.15-1.41.32-1.78.39a8.09,8.09,0,0,1-1.33.11Zm-.6-.66a.26.26,0,0,0-.21.2c0,.11.11.21.3.23A7,7,0,0,0,52.1,37c.36-.06,1.21-.22,1.76-.38.06,0,.2-.12.18-.25a.27.27,0,0,0-.25-.18,10.46,10.46,0,0,1-1.73.39,7.12,7.12,0,0,1-1.85.08Z"/><path class="cls-3" d="M45,36.2c-.46-.09-.68.46-.53.78.07-.17.39-.17.45-.32s-.06-.24.08-.46Z"/><path class="cls-5" d="M44.42,37.07a.11.11,0,0,1-.09,0,.69.69,0,0,1,0-.65.59.59,0,0,1,.49-.3s.12,0,.13.08.06.08.06.1a.2.2,0,0,0-.06.17.43.43,0,0,1,0,.26c-.05.14-.18.18-.28.23s-.16.07-.17.11,0,.07-.09,0Zm.36-.76a.34.34,0,0,0-.24.18.54.54,0,0,0-.07.29.42.42,0,0,1,.14-.06c.07,0,.15-.06.16-.11a.16.16,0,0,0,0-.15.75.75,0,0,1,0-.15Z"/><path class="cls-3" d="M46.78,37.64c0-.33.3-.28.3-.59,0-.15-.07-.39-.23-.39a.33.33,0,0,0-.3.32c-.07.3.23.33.23.66Z"/><path class="cls-5" d="M46.78,37.75a.1.1,0,0,1-.09-.11.41.41,0,0,0-.11-.25.49.49,0,0,1-.13-.45.42.42,0,0,1,.4-.39c.23,0,.34.3.34.5a.48.48,0,0,1-.18.37.24.24,0,0,0-.12.22.11.11,0,0,1-.11.11Zm.07-1a.23.23,0,0,0-.2.22.3.3,0,0,0,.08.27.7.7,0,0,1,.06.09s.06-.05.08-.07a.25.25,0,0,0,.12-.22c0-.13-.08-.29-.14-.29Z"/><path class="cls-3" d="M49,36.74c.44,0,.4.62.19.93,0-.21-.39-.31-.39-.45s.34-.24.2-.48Z"/><path class="cls-5" d="M49.15,37.78h0s-.06-.05-.06-.1-.1-.12-.19-.19-.2-.15-.2-.26a.38.38,0,0,1,.17-.31.33.33,0,0,1,0-.17s.08-.11.12-.11a.41.41,0,0,1,.39.24,1,1,0,0,1-.12.88.11.11,0,0,1-.08,0Zm0-.91a.31.31,0,0,1-.14.2c-.06,0-.1.09-.1.15l.12.08a1.19,1.19,0,0,1,.18.15.79.79,0,0,0,0-.48s-.05-.07-.07-.1Z"/><path class="cls-3" d="M53.94,36.2c.47-.09.69.46.54.78-.07-.17-.39-.17-.45-.32s.06-.24-.09-.46Z"/><path class="cls-5" d="M54.48,37.07a.14.14,0,0,1-.1,0s-.09-.08-.17-.11-.23-.09-.28-.22a.53.53,0,0,1,0-.27c0-.05,0-.08,0-.17s0-.06,0-.1a.11.11,0,0,1,.06-.07.59.59,0,0,1,.6.29.69.69,0,0,1,0,.65.09.09,0,0,1-.09,0Zm-.37-.77a.86.86,0,0,1,0,.16.3.3,0,0,0,0,.16s.1.06.18.1l.13.06a.47.47,0,0,0-.07-.29.39.39,0,0,0-.25-.19Z"/><path class="cls-3" d="M52.12,37.64c0-.33-.31-.28-.31-.59,0-.15.09-.39.24-.39a.33.33,0,0,1,.3.32c.07.3-.23.33-.23.66Z"/><path class="cls-5" d="M52.12,37.75a.1.1,0,0,1-.1-.11.29.29,0,0,0-.12-.22.46.46,0,0,1-.19-.37c0-.2.11-.5.34-.5a.44.44,0,0,1,.41.43.48.48,0,0,1-.14.41.4.4,0,0,0-.09.25.12.12,0,0,1-.11.11Zm-.07-1c-.06,0-.14.16-.14.29a.25.25,0,0,0,.12.22s.06,0,.07.07l.07-.09a.24.24,0,0,0,.08-.26.24.24,0,0,0-.2-.23Z"/><path class="cls-3" d="M49.94,36.74c-.45,0-.4.62-.19.93,0-.21.39-.31.39-.45s-.35-.24-.2-.48Z"/><path class="cls-5" d="M49.75,37.78a.11.11,0,0,1-.08,0,1,1,0,0,1-.12-.88.41.41,0,0,1,.39-.24.13.13,0,0,1,.09,0,.16.16,0,0,1,0,.12c.12.17.22.25.22.42s-.11.19-.21.26-.17.13-.17.19a.09.09,0,0,1-.08.1Zm.06-.91a.25.25,0,0,0-.08.1.67.67,0,0,0,0,.48.75.75,0,0,1,.16-.15.48.48,0,0,0,.12-.08c0-.06,0-.1-.1-.15a.3.3,0,0,1-.12-.2Z"/><path class="cls-3" d="M45.1,36.36a.72.72,0,0,1,.46.15Z"/><path class="cls-5" d="M45.56,36.57h0l-.45-.14s-.06-.05,0-.08,0-.07.05-.07a.81.81,0,0,1,.52.19.08.08,0,0,1,0,.09l-.06,0Z"/><path class="cls-3" d="M45.86,36.58a1.76,1.76,0,0,1,.54.16Z"/><path class="cls-5" d="M46.4,36.82h0l-.54-.15a.11.11,0,0,1-.05-.09c0-.12.43,0,.65.11a.06.06,0,0,1,0,.08.07.07,0,0,1-.06.06Z"/><path class="cls-3" d="M48.62,36.9c-.16,0-.47,0-.54.08Z"/><path class="cls-5" d="M48.08,37A.1.1,0,0,1,48,37s0-.05,0-.07.3-.08.6-.08c0,0,.06,0,.06,0a.12.12,0,0,1,0,.1l-.54.06Z"/><path class="cls-3" d="M47.77,36.9a.57.57,0,0,0-.54,0Z"/><path class="cls-5" d="M47.77,37h-.54s0,0-.06-.06,0-.07,0-.08.45-.18.63,0a.13.13,0,0,1,0,.09.08.08,0,0,1-.07,0Z"/><path class="cls-3" d="M53.79,36.36a.72.72,0,0,0-.45.15Z"/><path class="cls-5" d="M53.34,36.57s0,0-.06,0,0-.06,0-.09a.88.88,0,0,1,.49-.18.08.08,0,0,1,.08.07.08.08,0,0,1,0,.08l-.46.14Z"/><path class="cls-3" d="M53,36.58a1.75,1.75,0,0,0-.52.16Z"/><path class="cls-5" d="M52.51,36.82a.07.07,0,0,1-.07-.06s0-.08,0-.08c.23-.13.62-.23.64-.11a.08.08,0,0,1,0,.09l-.53.15Z"/><path class="cls-3" d="M50.28,36.9c.17,0,.47,0,.54.08Z"/><path class="cls-5" d="M50.82,37h0L50.28,37a.1.1,0,0,1-.07-.1s0,0,.07,0c.32,0,.51,0,.6.08a.11.11,0,0,1,0,.07.09.09,0,0,1-.08,0Z"/><path class="cls-3" d="M51.12,36.9a.57.57,0,0,1,.54,0Z"/><path class="cls-5" d="M51.66,37h-.54a.07.07,0,0,1-.06,0,.1.1,0,0,1,0-.09c.18-.18.48-.08.62,0s0,0,0,.08,0,.06-.07.06Z"/><path class="cls-5" d="M50.51,21.44a1.18,1.18,0,0,0-.79-.79,2.88,2.88,0,0,0-.61,0c-.22-.06-.42.2-.49.35.22.17.28.34.39.4s.35,0,.59-.23a.57.57,0,0,1,.91.31Z"/><path class="cls-5" d="M49.18,21.44a.31.31,0,0,1-.18-.05c-.07,0-.11-.08-.17-.15a1.16,1.16,0,0,0-.25-.24c0-.15.21-.45.46-.45l.21,0a1.37,1.37,0,0,1,.49,0,1.19,1.19,0,0,1,.77.67c-.3-.2-.68-.32-.88-.11s-.29.27-.45.27Zm-.08-.78a.52.52,0,0,0-.45.33.49.49,0,0,1,.25.19.43.43,0,0,0,.14.13c.19.07.28,0,.53-.22a.6.6,0,0,1,.72,0,1.11,1.11,0,0,0-.57-.36,1.22,1.22,0,0,0-.37-.05H49.1Z"/><path class="cls-3" d="M49.06,20.84c-.14,0-.14.24,0,.24a.12.12,0,0,0,0-.24Z"/><path class="cls-3" d="M49.06,21.18a.22.22,0,0,1-.22-.23c0-.25.45-.25.45,0a.23.23,0,0,1-.23.23Z"/><path class="cls-3" d="M50.38,26.83v4.94a4.43,4.43,0,0,1-.93.8,4.19,4.19,0,0,1-.93-.8V26.82a4,4,0,0,0,.93-.51,3,3,0,0,0,.93.52Z"/></g></g></g></svg>