<svg id="Layer_1" data-name="Layer 1" xmlns="http://www.w3.org/2000/svg" xmlns:xlink="http://www.w3.org/1999/xlink" viewBox="0 0 100 60"><defs><style>.cls-1{fill:none;}.cls-2{clip-path:url(#clip-path);}.cls-3{fill:#3d9635;}.cls-4{fill:#fff;}</style><clipPath id="clip-path"><rect class="cls-1" x="0.26" width="99.74" height="60"/></clipPath></defs><title>Flags</title><g id="SAUDI_ARABIA" data-name="SAUDI ARABIA"><g class="cls-2"><rect class="cls-3" x="0.26" width="99.74" height="60"/><g class="cls-2"><path class="cls-4" d="M28.49,17c-.1,1.4-.23,3.88.93,4.13,1.39.13.63-2.44,1.13-2.91.09-.23.27-.23.29.06v2.19a1,1,0,0,0,.79,1.05c.37,0,.61,0,.75.36.06,1.26.12,2.51.17,3.77,0,0,.86.26.9-2.12a21.35,21.35,0,0,1-.09-2.83c0-.27.33-.29.57-.15s.52.59,1.09.46c.87-.25,1.38-.67,1.39-1.37A6.2,6.2,0,0,0,36,17.7c0-.12-.17-.42-.12-.54.15.25.38.23.43,0A1.91,1.91,0,0,0,35.59,16c-.3-.28-.76-.22-.92.37a3.3,3.3,0,0,0,.71,2.09,2.17,2.17,0,0,1,.18,1.06.55.55,0,0,1-.71-.15s-.69-.53-.69-.64A2.69,2.69,0,0,0,34.1,17a2.17,2.17,0,0,0-.46-.91c-.17-.2-.4-.2-.51,0a3.29,3.29,0,0,0,.06,2.23c.15.48.4.77.28.77-.09.28-.29.21-.43-.1A8.17,8.17,0,0,1,32.8,17c-.06-.54-.13-1.69-.47-2s-.53-.14-.64.13a10,10,0,0,0,0,1.56,17.79,17.79,0,0,1,.43,2.51c0,1.19-.67.52-.64-.08a5.37,5.37,0,0,0,0-2.26c-.11-.31-.25-.38-.53-.32s-.78.61-.93,1.66a8.08,8.08,0,0,0-.19,1c-.09.54-.43.92-.67-.09-.22-.73-.34-2.52-.69-2.1"/><path class="cls-4" d="M32.28,22.75c-1.23.64-2.43,1.21-3.64,1.81.05-.85,1.74-2.38,2.88-2.41.75,0,.56.3.76.6"/><path class="cls-4" d="M36.92,14.83a1.44,1.44,0,0,0-.23.07.71.71,0,0,0-.49.87c.36,2.21.58,3.88.93,6.07.06.27-.15.6-.42.58-.46-.33-.58-1-1.36-1a1.56,1.56,0,0,0-1.3,1.26,3.33,3.33,0,0,0,0,1.44,1.12,1.12,0,0,0,1.3.33c.34-.14.63-.5.75-.42h0c.08.14,0,1.29-1.62,2.17-1,.45-1.78.57-2.21-.27-.26-.52,0-2.51-.62-2.05-1.92,5.09,4.48,5.81,5.2.21,0-.15.19-.31.29-.27s.08.08.09.2c-.14,5.06-4.95,5.4-5.76,3.82a4.91,4.91,0,0,1-.29-1.71.92.92,0,0,0-.2-.57c-.19-.14-.45.25-.51.94a6.35,6.35,0,0,0-.06,1.22c.26,4,6.44,2.3,7.45-1,.5-1.71,0-3,.16-3.16h0c.62.68,1.48.08,1.67-.15a.28.28,0,0,1,.43,0A1,1,0,0,0,41.65,23a16.41,16.41,0,0,0,.21-1.91,1.78,1.78,0,0,0-.67.29.23.23,0,0,0,0,.1c0,.16,0,.36-.08.53a.43.43,0,0,1,0,.05s0,0-.06.05a.21.21,0,0,1-.32-.14c-.14-.69-.75-.79-1.12.28-.26.22-.7.26-.75,0,.06-.73-.23-.83-.79-.49-.18-1.44-.37-2.81-.55-4.24.24,0,.45.18.67-.1a8.49,8.49,0,0,0-1-2.43h0l0,0,0,0h0l0,0h-.09M35.2,22.69a.32.32,0,0,1,.34.22.4.4,0,0,1-.07.38h0c0,.09-.21.05-.34.05a.32.32,0,0,1-.3-.16c0-.13.08-.26.14-.37h0s0,0,0,0a.45.45,0,0,1,.21-.09"/><path class="cls-4" d="M41.24,14.71a1.19,1.19,0,0,0-.44.12A.89.89,0,0,0,40.66,16c.24.1.49.37.32.5-.68.75-2.48,2-2.57,2.26h0s0,0,0,0h0a4.62,4.62,0,0,0,1.34,0h0A19.19,19.19,0,0,0,42,16.46c-.09-.09-.19-.15-.28-.23a.15.15,0,0,1,0-.26.77.77,0,0,0,.07-1.15,1,1,0,0,0-.54-.11m-.09.66c.12,0,.25.11.31.25s0,.31-.07.35a.37.37,0,0,1-.34-.24c-.07-.17,0-.33.08-.35h0"/><path class="cls-4" d="M28.77,26.37a3.86,3.86,0,0,0-.37,3.3.75.75,0,0,0,.78.26,1.48,1.48,0,0,0,.51-1.41c-.14-.24-.25-.27-.4-.07-.3.62-.43.19-.45-.17a8.15,8.15,0,0,1,.08-1.77c.08-.49,0-.35-.15-.14"/><path class="cls-4" d="M58,24.57c-.65-1.47-1.57-2.92-1.86-3.47s-2.49-3.84-2.82-4.22c-.71-.88,1.16.37-.23-1.38-.53-.47-.56-.49-1-.87-.22-.17-.77-.46-.86,0a2.72,2.72,0,0,0,0,1,3.46,3.46,0,0,0,.56.89A65.05,65.05,0,0,1,57.92,26.7c.31-.14.24-1.88.06-2.13"/><path class="cls-4" d="M55.09,29.48c-.14.14.31.8.9.79,1-.11,1.84-.68,2.64-2.18a4,4,0,0,0,.6-1.67,37.5,37.5,0,0,0-.66-8.48,1.45,1.45,0,0,1,0-.59c.06-.08.28,0,.39-.19s-.44-1.64-.79-2.2c-.12-.25-.17-.42-.37,0a3.28,3.28,0,0,0-.35,1.61c.47,3.33.61,6.26.92,9.59a1.36,1.36,0,0,1-.23,1,9,9,0,0,1-3.08,2.32"/><path class="cls-4" d="M68.32,29.46c-.71.41-.71.9-.13.92a3.49,3.49,0,0,0,2.94-1.45,5,5,0,0,0,.47-1.87,45.51,45.51,0,0,0-.53-9.15A4.71,4.71,0,0,1,71,17c.07-.15.38,0,.49-.16s-.82-1.5-1.17-2.06c-.12-.25-.16-.42-.37,0a2.63,2.63,0,0,0-.2,1.6,92.32,92.32,0,0,1,1,10.34,3,3,0,0,1-.2.85,6.11,6.11,0,0,1-1,1.16c-.32.24-1,.48-1.22.66"/><path class="cls-4" d="M68.84,26.21c0-.85,0-1.58,0-2.21s-.31-3-.4-3.51-.19-1.28-.32-1.89A5.64,5.64,0,0,1,68,17.52c.06-.17.28,0,.38-.19a6.72,6.72,0,0,0-.92-2.66c-.13-.25-.37-.16-.66.24s-.18.86-.08,1.44a54.41,54.41,0,0,1,1.12,11.36c0,.3,1-.92,1-1.5"/><path class="cls-4" d="M63.65,21.52c-.44,0-1.37-.89-1.64-1.4a1,1,0,0,1,.05-.75c.17-.11.42-.24.61-.11,0,0,.19.27.16.31.24.12.34.05.37-.06s-.08-.28-.08-.47a.51.51,0,0,1,.92-.27,1.94,1.94,0,0,1,.24.93c0,.16-.24,0-.37,0s-.17.19-.18.34c0,.39-.07,1-.08,1.47"/><path class="cls-4" d="M55.49,27.16A39.59,39.59,0,0,0,55.43,23c0-1.61-.3-4.71-.41-5.22-.14-1,.38.11.31-.47A6.3,6.3,0,0,0,54,14.76c-.2-.29-.19-.35-.5.07a3.09,3.09,0,0,0,0,2,38,38,0,0,1,.82,5.7,50.85,50.85,0,0,1,0,6.06c.34,0,.87-.57,1.06-1.39"/><path class="cls-4" d="M70.35,25.3c-.77-1.35-1.95-2.93-2.27-3.47s-3-4.56-3.31-4.92c-1-1,.45-.17-.18-1a8.24,8.24,0,0,0-1.15-1.15c-.23-.14-.37-.44-.45.05a9.8,9.8,0,0,0,0,1.31,1.67,1.67,0,0,0,.39.82,76.5,76.5,0,0,1,7,10.47c.3-.14.19-1.88,0-2.12"/><path class="cls-4" d="M60.91,41.23h0a.68.68,0,0,0-.22,1.25c-7.29,0-18.47-.12-20.86-.12-1.34,0-5.58-.17-5.66-.17.9,1.36,2.22,1.64,4,1.68l22.48,0a1.56,1.56,0,0,0,.27,1.6l0,0h0c.28.07.41-.15.51-.29a29.5,29.5,0,0,0,3.27,0h0c.16.24.32.47.62.43.53-.12,1-.18,1-1.29,0,0-.06-1.89-1.26-1.77l-1.09.11c-.93-.1-1.61-.11-2.65-.16.09-.12.26-.64.05-.82a.39.39,0,0,0-.25-.07h0l0,0h0c-.06-.06-.09-.27-.12-.33h0m.49,2.71h0c1.05.05,2.05,0,3.12.06a.41.41,0,0,1,0,.55,0,0,0,0,1,0,0h0l-.89,0s0,0,0-.06c-.09-.25-.68-.23-.82,0h0a0,0,0,0,1,0,0v.06a6.88,6.88,0,0,1-1.36,0c-.13-.17-.12-.48,0-.56"/><path class="cls-4" d="M42.47,15.86c-.71,2.08.41,4.38,1.18,4.16.56.23.92-.87,1.15-2.07.16-.33.27-.37.35-.2,0,1.6.11,2,.51,2.44a1.24,1.24,0,0,0,1.68,0c.06,0,.7-.71.7-.71a.39.39,0,0,1,.57,0c.21.19.18.53.64.76a1.32,1.32,0,0,0,1.38-.3c.25-.44.31-.6.42-.76s.5-.15.5-.06-.21.27-.09.52.27.06.4,0c.45-.23.79-1.24.79-1.24,0-.38-.19-.34-.33-.26s-.18.14-.35.25-.65.18-.85-.15-.22-1-.39-1.39c0,0-.29-.64,0-.68s.41.1.46-.15-.3-.93-.6-1.27a.64.64,0,0,0-1,0c-.24.22-.21.5-.26.74a1.19,1.19,0,0,0,.23,1,3.1,3.1,0,0,1,.55,2,.83.83,0,0,1-.72.38c-.19,0-.5-.13-.67-1.37-.11-1,0-2.3-.36-2.91-.14-.38-.24-.75-.58-.1a1.52,1.52,0,0,0-.2,1.43,4.34,4.34,0,0,1,.22,2.21,3.33,3.33,0,0,1-.42.61.66.66,0,0,1-.87.12.94.94,0,0,1-.52-.75,11.49,11.49,0,0,0-.09-2.45.41.41,0,0,0-.71-.16,5.54,5.54,0,0,0-1.31,2.76c-.21.67-.42.48-.57.21-.37-.35-.39-3.13-.84-2.67"/><path class="cls-4" d="M44.87,20.18h0c-.05,0-.11.11-.23.21a1.09,1.09,0,0,0-.23.89c0,.06.39,1.15.72,1.93a6.17,6.17,0,0,1,.27,2.6,6.23,6.23,0,0,1-2.54,2.73,1.26,1.26,0,0,1-1.06,0h0a.66.66,0,0,1-.28-.63h0a6.19,6.19,0,0,0,2.56-2.71,3,3,0,0,0,.07-2,2,2,0,0,0-.44-.89s0,0,0,0,.51.22.57,0A2.83,2.83,0,0,0,43.53,21a.62.62,0,0,0-.91-.06c-.3.18-.36.82-.22,1.38.16.4.61.48.93,1.31v0a1.58,1.58,0,0,1,0,.87,9.59,9.59,0,0,1-1.92,1.84v0h0a2.43,2.43,0,0,0,0-.28c0-.24.09-.81.08-.92h0c-.54.37-.73,1.49-.83,1.83-1.39,1-3,1.72-3.88,2.74-.48.75,3.27-.89,3.7-1.08h0c.08.09.08.41.33.71a1.93,1.93,0,0,0,2,.68,6.54,6.54,0,0,0,2.93-2.51c.11-.17.29-.3.45-.17.54,1.26,2.11,2.14,4.14,2.24.46-.59.24-.89,0-1s-1-.44-1.15-.82.13-.66.58-.9a19.09,19.09,0,0,0,3.83-.75A3.35,3.35,0,0,1,54,24.79a.61.61,0,0,1,.22-.24,0,0,0,0,0,0,0h0v0L54,24.37l-4.15,0a.34.34,0,0,1-.12-.06h0v0h0a.26.26,0,0,1,.13-.08c1-.13,2.76-.43,2.87-2.19a1.5,1.5,0,0,0-1.46-1.66A1.51,1.51,0,0,0,50,22c0,.23.08.69-.16.74-1.53.16-3.19,1.14-3.25,1.85h-.07a.4.4,0,0,1-.2-.43,8.6,8.6,0,0,0-1.06-3.67c-.21-.22-.3-.31-.37-.32h0m6.07,1.57a.49.49,0,0,1,.32.08.44.44,0,0,1,.26.36h0v0h0l0,0c-.08.09-.26.07-.43,0a.47.47,0,0,1-.26-.35h0s0,0,0,0v0h0l0,0a.15.15,0,0,1,.1,0m-3.86,3.61h.05a11.87,11.87,0,0,0,1.73.21c.49,0,.72.41.27.58s-.87.28-.87,1c.05.32.05.5,0,.57v0h-.06c-.11,0-.27-.1-.38-.15a2.49,2.49,0,0,1-1.16-1.76.45.45,0,0,1,.44-.47"/><path class="cls-4" d="M33.72,15.88c.48.23,1.38.13,1.34-.66,0-.07,0-.31,0-.37-.09-.24-.36-.19-.42.06,0,.07,0,.21,0,.25s-.19,0-.19-.2a.37.37,0,0,0-.08-.19.13.13,0,0,0-.11,0c-.06,0-.06,0-.09.09a.58.58,0,0,0,0,.18.12.12,0,0,1-.09.12c-.06,0,0,0-.1,0s-.07-.05-.07-.11a.63.63,0,0,0,0-.19.24.24,0,0,0-.12-.07c-.26,0-.28.31-.26.43s0,.58.32.73"/><path class="cls-4" d="M47.75,22c.48.23,1.62.1,1.35-.67,0-.07,0-.31,0-.37-.1-.24-.36-.18-.42.06,0,.08,0,.21,0,.26s-.19,0-.19-.21a.25.25,0,0,0-.08-.18.11.11,0,0,0-.1,0c-.07,0-.07,0-.1.09a.4.4,0,0,0,0,.18c0,.08,0,.1-.1.11s0,0-.09,0-.07,0-.07-.11a.54.54,0,0,0,0-.19.24.24,0,0,0-.12-.07c-.26,0-.27.31-.26.43a.77.77,0,0,0,.32.73"/><path class="cls-4" d="M55.94,19.47c.48.23,1.37.12,1.34-.67,0-.06,0-.3,0-.37-.1-.23-.37-.18-.43.07,0,.08,0,.21,0,.24s-.19,0-.19-.2a.44.44,0,0,0-.07-.19h-.11c-.06,0-.06,0-.1.07a.58.58,0,0,0,0,.19.1.1,0,0,1-.09.11c-.06,0,0,0-.1,0s-.07,0-.07-.1a.71.71,0,0,0,0-.21l-.11-.05c-.27,0-.29.32-.27.42s0,.58.33.73"/><path class="cls-4" d="M60.17,25.83a3.12,3.12,0,0,0-.28,2.92,2.31,2.31,0,0,0,1,1.21A.7.7,0,0,0,62,29.84c.49-.53.5-1.86.73-2.12a.42.42,0,0,1,.76-.19,2.07,2.07,0,0,0,.7.62,1.15,1.15,0,0,0,1.54.11,1.77,1.77,0,0,0,.83-1,39.89,39.89,0,0,0,.06-6.06c0-.14-.48-2.49-.48-2.51s-.06-1.2-.11-1.47,0-.16.08-.15.13.14.21.16.24-.19.16-.4c-.37-.71-.76-1.44-1.14-2.15-.09-.11-.21-.2-.36,0a.92.92,0,0,0-.28.65c0,.51.13,1,.16,1.55.15.88.3,1.76.46,2.65.14,1.88.18,3.6.32,5.48,0,.79-.26,1.86-.49,2,0,0-.34.22-.57,0a7,7,0,0,1-.84-1.15.49.49,0,0,0-.81,0,11.58,11.58,0,0,0-1.43,2.78c-.12.19-.45.36-.82,0a4.08,4.08,0,0,1-.51-2.72"/><path class="cls-4" d="M56.15,14.85a1.62,1.62,0,0,1,.63,1.51c-.08.54-.31,1.14-.47,1.05s.12-.53-.05-1c-.1-.33-.68-.9-.62-1.08-.12-.36.25-.53.51-.46"/><path class="cls-4" d="M61.55,26.37A13.49,13.49,0,0,0,61.46,24c0-.62-.68-5.76-.82-6.24-.16-.9.65-.12.55-.64-.28-.66-1-1.63-1.19-2.21-.14-.25-.08-.46-.38-.06a5.34,5.34,0,0,0-.26,2.25,50.28,50.28,0,0,1,1.32,10.82c.33,0,.71-.77.87-1.55"/><path class="cls-4" d="M68.87,16.12c.4.22.63,1.33.59,1.65-.08.59-.28,1.22-.43,1.14s0-.87,0-1.11-.62-1-.57-1.18a.38.38,0,0,1,.46-.5"/><path class="cls-4" d="M39.83,24.33c.37.15.59,1,.55,1.21-.08.43-.28.89-.41.84s0-.65,0-.83c0-.44-.55-.67-.54-.86-.1-.35.21-.41.45-.36"/><path class="cls-4" d="M29.83,14.58c.56.17.59,1,.55,1.25-.07.45-.27.93-.42.87s0-.66-.07-.85-.55-.75-.49-.89c-.11-.3.2-.44.43-.38"/><path class="cls-4" d="M40.73,18.53a1,1,0,0,0-.32,1.35.62.62,0,0,0,.68.22c.42.06.66-.81.66-.81s0-.24-.47.22c-.21,0-.24,0-.29-.16a1.11,1.11,0,0,1,.06-.67c.08-.21-.08-.31-.32-.15"/><path class="cls-4" d="M43.9,14.25a1.6,1.6,0,0,0-.64,1.13c0,.29-.07.29.11.48s.28.18.55,0a.61.61,0,0,0,.26-.38c.07-.34-.34.16-.4-.22s.18-.47.43-.82c0-.23,0-.38-.31-.21"/><path class="cls-4" d="M46.46,14.72A7.26,7.26,0,0,0,46.28,16c-.08.32.33.46.51,0a3.72,3.72,0,0,0,.29-1.42c-.08-.49-.4-.47-.62.07"/><path class="cls-4" d="M62.59,23.18l2.27-1.67c.23-.09.18.84.08.82A8.58,8.58,0,0,1,62.59,24c-.11.07-.22-.63,0-.84"/><path class="cls-4" d="M64.61,23.17c.4.21.55,1.38.51,1.7,0,.62-.38,1.13-.53,1.05s0-.77-.06-1-.43-1-.37-1.19a.4.4,0,0,1,.45-.54"/><path class="cls-4" d="M51.42,28.25a3.27,3.27,0,0,1,.63-.57.37.37,0,0,1,.43.09c0,.21-.13.43-.08.73,0,.12.08.26.3.2a1.44,1.44,0,0,1,1-.31c.27,0,.28.48.11.48a7.3,7.3,0,0,0-1.41.51.28.28,0,0,1-.4-.06.42.42,0,0,1,0-.42c0-.23-.08-.37-.28-.35s-.27.14-.34,0,0-.2.05-.27"/><path class="cls-4" d="M66.94,28.88a.29.29,0,0,1,0,.44c-.16.16-.27.23-.43.39s-.11.32.11.38c.41.12,1.37-.51,1.37-.54a.3.3,0,0,0,.09-.35c-.09-.1-.29,0-.42,0s-.29-.05-.18-.23a1.89,1.89,0,0,0,.17-.35c.06-.15,0-.25-.23-.33a1.67,1.67,0,0,0-.59,0c-.14,0-.19.1-.22.27s.17.25.33.36"/></g></g></g></svg>