<svg id="Layer_1" data-name="Layer 1" xmlns="http://www.w3.org/2000/svg" xmlns:xlink="http://www.w3.org/1999/xlink" viewBox="0 0 100 60"><defs><style>.cls-1{fill:none;}.cls-2{clip-path:url(#clip-path);}.cls-3{fill:#681840;}.cls-4{fill:#fff;}</style><clipPath id="clip-path"><rect class="cls-1" y="-0.04" width="100" height="60.04"/></clipPath></defs><title>Flags</title><g id="QATAR"><g class="cls-2"><polygon class="cls-3" points="29.8 -0.04 40.43 3.3 29.8 6.63 40.43 9.97 29.8 13.3 40.43 16.64 29.8 19.98 40.43 23.31 29.8 26.65 40.43 29.98 29.8 33.32 40.43 36.65 29.8 39.99 40.43 43.32 29.8 46.67 40.43 50 29.8 53.33 40.43 56.67 29.8 60 100 60 100 -0.04 29.8 -0.04"/><polygon class="cls-4" points="0 -0.04 0 60 29.8 60 40.43 56.67 29.8 53.33 40.43 50 29.8 46.67 40.43 43.32 29.8 39.99 40.43 36.65 29.8 33.32 40.43 29.98 29.8 26.65 40.43 23.31 29.8 19.98 40.43 16.64 29.8 13.3 40.43 9.97 29.8 6.63 40.43 3.3 29.8 -0.04 0 -0.04"/></g></g></svg>