<svg id="Layer_1" data-name="Layer 1" xmlns="http://www.w3.org/2000/svg" xmlns:xlink="http://www.w3.org/1999/xlink" viewBox="0 0 100 60"><defs><style>.cls-1{fill:none;}.cls-2{clip-path:url(#clip-path);}.cls-3{fill:#fff;}.cls-4{fill:#bd0034;}.cls-5{fill:#1a237b;}</style><clipPath id="clip-path"><rect class="cls-1" y="0.12" width="99.94" height="59.88"/></clipPath></defs><title>Flags</title><g id="UNITED_KINGDOM" data-name="UNITED KINGDOM"><g class="cls-2"><rect class="cls-3" y="0.12" width="99.94" height="59.88"/><polygon class="cls-4" points="66.92 21.77 99.94 2.78 99.94 0.12 97.67 0.12 60.01 21.77 66.92 21.77"/><polygon class="cls-4" points="65.36 39.55 99.94 59.43 99.94 55.46 72.27 39.55 65.36 39.55"/><polygon class="cls-4" points="0 4.68 29.58 21.77 36.5 21.77 0 0.71 0 4.68"/><polygon class="cls-4" points="34.93 39.55 0 59.65 0 60 6.31 60 41.84 39.55 34.93 39.55"/><polygon class="cls-5" points="93.1 0.12 58.11 0.12 58.11 20.25 93.1 0.12"/><polygon class="cls-5" points="42.66 0.12 7.81 0.12 42.66 20.25 42.66 0.12"/><polygon class="cls-5" points="99.94 21.77 99.94 8.04 76.2 21.77 99.94 21.77"/><polygon class="cls-5" points="99.94 53.14 99.94 39.55 76.2 39.55 99.94 53.14"/><polygon class="cls-5" points="9.79 60 42.66 60 42.66 41.08 9.79 60"/><polygon class="cls-5" points="58.11 60 91.09 60 58.11 41.08 58.11 60"/><polygon class="cls-5" points="0 39.55 0 53.76 24.56 39.55 0 39.55"/><polygon class="cls-5" points="0 21.77 24.56 21.77 0 7.55 0 21.77"/><polygon class="cls-4" points="45.75 0.12 45.75 25.33 0 25.33 0 36 45.75 36 45.75 60 55.02 60 55.02 36 99.94 36 99.94 25.33 55.02 25.33 55.02 0.12 45.75 0.12"/></g></g></svg>