<svg id="Layer_1" data-name="Layer 1" xmlns="http://www.w3.org/2000/svg" xmlns:xlink="http://www.w3.org/1999/xlink" viewBox="0 0 100 60"><defs><style>.cls-1{fill:none;}.cls-2{clip-path:url(#clip-path);}.cls-3{fill:#cb001c;}.cls-4{fill:#fff;}.cls-5{fill:#2a3560;}</style><clipPath id="clip-path"><rect class="cls-1" width="100" height="60"/></clipPath></defs><title>Flags</title><g id="USA"><g class="cls-2"><rect class="cls-3" y="55.39" width="100" height="4.61"/><rect class="cls-4" y="50.77" width="100" height="4.62"/><rect class="cls-3" y="46.16" width="100" height="4.61"/><rect class="cls-4" y="41.54" width="100" height="4.62"/><rect class="cls-3" y="36.92" width="100" height="4.62"/><rect class="cls-4" y="32.31" width="100" height="4.61"/><rect class="cls-3" y="27.69" width="100" height="4.62"/><rect class="cls-4" y="23.08" width="100" height="4.61"/><rect class="cls-3" y="18.47" width="100" height="4.61"/><rect class="cls-4" y="13.85" width="100" height="4.62"/><rect class="cls-3" y="9.23" width="100" height="4.62"/><rect class="cls-4" y="4.62" width="100" height="4.61"/><rect class="cls-3" width="100" height="4.62"/><rect class="cls-5" width="45.67" height="32.31"/><polygon class="cls-4" points="4.13 3.56 4.52 4.79 5.77 4.79 4.75 5.54 5.14 6.76 4.13 6.01 3.11 6.76 3.51 5.54 2.5 4.79 3.73 4.79 4.13 3.56"/><polygon class="cls-4" points="4.13 8.95 4.52 10.18 5.77 10.18 4.75 10.93 5.14 12.15 4.13 11.4 3.11 12.15 3.51 10.93 2.5 10.18 3.73 10.18 4.13 8.95"/><polygon class="cls-4" points="4.13 14.35 4.52 15.57 5.77 15.57 4.75 16.32 5.14 17.55 4.13 16.79 3.11 17.55 3.51 16.32 2.5 15.57 3.73 15.57 4.13 14.35"/><polygon class="cls-4" points="4.13 19.74 4.52 20.96 5.77 20.96 4.75 21.72 5.14 22.94 4.13 22.18 3.11 22.94 3.51 21.72 2.5 20.96 3.73 20.96 4.13 19.74"/><polygon class="cls-4" points="4.13 25.13 4.52 26.36 5.77 26.36 4.75 27.11 5.14 28.33 4.13 27.57 3.11 28.33 3.51 27.11 2.5 26.36 3.73 26.36 4.13 25.13"/><polygon class="cls-4" points="7.78 6.41 8.15 7.63 9.41 7.63 8.4 8.38 8.78 9.6 7.78 8.85 6.77 9.6 7.15 8.38 6.14 7.63 7.4 7.63 7.78 6.41"/><polygon class="cls-4" points="7.78 11.8 8.15 13.01 9.41 13.01 8.4 13.77 8.78 14.99 7.78 14.25 6.77 14.99 7.15 13.77 6.14 13.01 7.4 13.01 7.78 11.8"/><polygon class="cls-4" points="7.78 17.19 8.15 18.41 9.41 18.41 8.4 19.16 8.78 20.39 7.78 19.63 6.77 20.39 7.15 19.16 6.14 18.41 7.4 18.41 7.78 17.19"/><polygon class="cls-4" points="7.78 22.59 8.15 23.81 9.41 23.81 8.4 24.56 8.78 25.77 7.78 25.02 6.77 25.77 7.15 24.56 6.14 23.81 7.4 23.81 7.78 22.59"/><polygon class="cls-4" points="11.47 3.56 11.86 4.79 13.11 4.79 12.1 5.54 12.49 6.76 11.47 6.01 10.47 6.76 10.85 5.54 9.84 4.79 11.09 4.79 11.47 3.56"/><polygon class="cls-4" points="11.47 8.95 11.86 10.18 13.11 10.18 12.1 10.93 12.49 12.15 11.47 11.4 10.47 12.15 10.85 10.93 9.84 10.18 11.09 10.18 11.47 8.95"/><polygon class="cls-4" points="11.47 14.35 11.86 15.57 13.11 15.57 12.1 16.32 12.49 17.55 11.47 16.79 10.47 17.55 10.85 16.32 9.84 15.57 11.09 15.57 11.47 14.35"/><polygon class="cls-4" points="11.47 19.74 11.86 20.96 13.11 20.96 12.1 21.72 12.49 22.94 11.47 22.18 10.47 22.94 10.85 21.72 9.84 20.96 11.09 20.96 11.47 19.74"/><polygon class="cls-4" points="11.47 25.13 11.86 26.36 13.11 26.36 12.1 27.11 12.49 28.33 11.47 27.57 10.47 28.33 10.85 27.11 9.84 26.36 11.09 26.36 11.47 25.13"/><polygon class="cls-4" points="15.12 6.41 15.51 7.63 16.76 7.63 15.75 8.38 16.14 9.6 15.12 8.85 14.12 9.6 14.51 8.38 13.49 7.63 14.74 7.63 15.12 6.41"/><polygon class="cls-4" points="15.12 11.8 15.51 13.01 16.76 13.01 15.75 13.77 16.14 14.99 15.12 14.25 14.12 14.99 14.51 13.77 13.49 13.01 14.74 13.01 15.12 11.8"/><polygon class="cls-4" points="15.12 17.19 15.51 18.41 16.76 18.41 15.75 19.16 16.14 20.39 15.12 19.63 14.12 20.39 14.51 19.16 13.49 18.41 14.74 18.41 15.12 17.19"/><polygon class="cls-4" points="15.12 22.59 15.51 23.81 16.76 23.81 15.75 24.56 16.14 25.77 15.12 25.02 14.12 25.77 14.51 24.56 13.49 23.81 14.74 23.81 15.12 22.59"/><polygon class="cls-4" points="18.82 3.56 19.21 4.79 20.45 4.79 19.44 5.54 19.84 6.76 18.82 6.01 17.81 6.76 18.2 5.54 17.19 4.79 18.44 4.79 18.82 3.56"/><polygon class="cls-4" points="18.82 8.95 19.21 10.18 20.45 10.18 19.44 10.93 19.84 12.15 18.82 11.4 17.81 12.15 18.2 10.93 17.19 10.18 18.44 10.18 18.82 8.95"/><polygon class="cls-4" points="18.82 14.35 19.21 15.57 20.45 15.57 19.44 16.32 19.84 17.55 18.82 16.79 17.81 17.55 18.2 16.32 17.19 15.57 18.44 15.57 18.82 14.35"/><polygon class="cls-4" points="18.82 19.74 19.21 20.96 20.45 20.96 19.44 21.72 19.84 22.94 18.82 22.18 17.81 22.94 18.2 21.72 17.19 20.96 18.44 20.96 18.82 19.74"/><polygon class="cls-4" points="18.82 25.13 19.21 26.36 20.45 26.36 19.44 27.11 19.84 28.33 18.82 27.57 17.81 28.33 18.2 27.11 17.19 26.36 18.44 26.36 18.82 25.13"/><polygon class="cls-4" points="22.48 6.41 22.86 7.63 24.11 7.63 23.1 8.38 23.48 9.6 22.48 8.85 21.47 9.6 21.85 8.38 20.84 7.63 22.09 7.63 22.48 6.41"/><polygon class="cls-4" points="22.48 11.8 22.86 13.01 24.11 13.01 23.1 13.77 23.48 14.99 22.48 14.25 21.47 14.99 21.85 13.77 20.84 13.01 22.09 13.01 22.48 11.8"/><polygon class="cls-4" points="22.48 17.19 22.86 18.41 24.11 18.41 23.1 19.16 23.48 20.39 22.48 19.63 21.47 20.39 21.85 19.16 20.84 18.41 22.09 18.41 22.48 17.19"/><polygon class="cls-4" points="22.48 22.59 22.86 23.81 24.11 23.81 23.1 24.56 23.48 25.77 22.48 25.02 21.47 25.77 21.85 24.56 20.84 23.81 22.09 23.81 22.48 22.59"/><polygon class="cls-4" points="26.17 3.56 26.56 4.79 27.8 4.79 26.8 5.54 27.19 6.76 26.17 6.01 25.17 6.76 25.55 5.54 24.54 4.79 25.79 4.79 26.17 3.56"/><polygon class="cls-4" points="26.17 8.95 26.56 10.18 27.8 10.18 26.8 10.93 27.19 12.15 26.17 11.4 25.17 12.15 25.55 10.93 24.54 10.18 25.79 10.18 26.17 8.95"/><polygon class="cls-4" points="26.17 14.35 26.56 15.57 27.8 15.57 26.8 16.32 27.19 17.55 26.17 16.79 25.17 17.55 25.55 16.32 24.54 15.57 25.79 15.57 26.17 14.35"/><polygon class="cls-4" points="26.17 19.74 26.56 20.96 27.8 20.96 26.8 21.72 27.19 22.94 26.17 22.18 25.17 22.94 25.55 21.72 24.54 20.96 25.79 20.96 26.17 19.74"/><polygon class="cls-4" points="26.17 25.13 26.56 26.36 27.8 26.36 26.8 27.11 27.19 28.33 26.17 27.57 25.17 28.33 25.55 27.11 24.54 26.36 25.79 26.36 26.17 25.13"/><polygon class="cls-4" points="29.82 6.41 30.21 7.63 31.46 7.63 30.45 8.38 30.84 9.6 29.82 8.85 28.82 9.6 29.21 8.38 28.19 7.63 29.44 7.63 29.82 6.41"/><polygon class="cls-4" points="29.82 11.8 30.21 13.01 31.46 13.01 30.45 13.77 30.84 14.99 29.82 14.25 28.82 14.99 29.21 13.77 28.19 13.01 29.44 13.01 29.82 11.8"/><polygon class="cls-4" points="29.82 17.19 30.21 18.41 31.46 18.41 30.45 19.16 30.84 20.39 29.82 19.63 28.82 20.39 29.21 19.16 28.19 18.41 29.44 18.41 29.82 17.19"/><polygon class="cls-4" points="29.82 22.59 30.21 23.81 31.46 23.81 30.45 24.56 30.84 25.77 29.82 25.02 28.82 25.77 29.21 24.56 28.19 23.81 29.44 23.81 29.82 22.59"/><polygon class="cls-4" points="33.52 3.56 33.91 4.79 35.16 4.79 34.15 5.54 34.53 6.76 33.52 6.01 32.52 6.76 32.9 5.54 31.89 4.79 33.14 4.79 33.52 3.56"/><polygon class="cls-4" points="33.52 8.95 33.91 10.18 35.16 10.18 34.15 10.93 34.53 12.15 33.52 11.4 32.52 12.15 32.9 10.93 31.89 10.18 33.14 10.18 33.52 8.95"/><polygon class="cls-4" points="33.52 14.35 33.91 15.57 35.16 15.57 34.15 16.32 34.53 17.55 33.52 16.79 32.52 17.55 32.9 16.32 31.89 15.57 33.14 15.57 33.52 14.35"/><polygon class="cls-4" points="33.52 19.74 33.91 20.96 35.16 20.96 34.15 21.72 34.53 22.94 33.52 22.18 32.52 22.94 32.9 21.72 31.89 20.96 33.14 20.96 33.52 19.74"/><polygon class="cls-4" points="33.52 25.13 33.91 26.36 35.16 26.36 34.15 27.11 34.53 28.33 33.52 27.57 32.52 28.33 32.9 27.11 31.89 26.36 33.14 26.36 33.52 25.13"/><polygon class="cls-4" points="37.18 6.41 37.55 7.63 38.81 7.63 37.81 8.38 38.18 9.6 37.18 8.85 36.16 9.6 36.55 8.38 35.55 7.63 36.79 7.63 37.18 6.41"/><polygon class="cls-4" points="37.18 11.8 37.55 13.01 38.81 13.01 37.81 13.77 38.18 14.99 37.18 14.25 36.16 14.99 36.55 13.77 35.55 13.01 36.79 13.01 37.18 11.8"/><polygon class="cls-4" points="37.18 17.19 37.55 18.41 38.81 18.41 37.81 19.16 38.18 20.39 37.18 19.63 36.16 20.39 36.55 19.16 35.55 18.41 36.79 18.41 37.18 17.19"/><polygon class="cls-4" points="37.18 22.59 37.55 23.81 38.81 23.81 37.81 24.56 38.18 25.77 37.18 25.02 36.16 25.77 36.55 24.56 35.55 23.81 36.79 23.81 37.18 22.59"/><polygon class="cls-4" points="40.87 3.56 41.26 4.79 42.5 4.79 41.5 5.54 41.88 6.76 40.87 6.01 39.87 6.76 40.24 5.54 39.24 4.79 40.48 4.79 40.87 3.56"/><polygon class="cls-4" points="40.87 8.95 41.26 10.18 42.5 10.18 41.5 10.93 41.88 12.15 40.87 11.4 39.87 12.15 40.24 10.93 39.24 10.18 40.48 10.18 40.87 8.95"/><polygon class="cls-4" points="40.87 14.35 41.26 15.57 42.5 15.57 41.5 16.32 41.88 17.55 40.87 16.79 39.87 17.55 40.24 16.32 39.24 15.57 40.48 15.57 40.87 14.35"/><polygon class="cls-4" points="40.87 19.74 41.26 20.96 42.5 20.96 41.5 21.72 41.88 22.94 40.87 22.18 39.87 22.94 40.24 21.72 39.24 20.96 40.48 20.96 40.87 19.74"/><polygon class="cls-4" points="40.87 25.13 41.26 26.36 42.5 26.36 41.5 27.11 41.88 28.33 40.87 27.57 39.87 28.33 40.24 27.11 39.24 26.36 40.48 26.36 40.87 25.13"/></g></g></svg>