<?xml version="1.0" encoding="utf-8"?>
<!-- Generator: Adobe Illustrator 22.0.1, SVG Export Plug-In . SVG Version: 6.00 Build 0)  -->
<svg version="1.1" id="Layer_1" xmlns="http://www.w3.org/2000/svg" xmlns:xlink="http://www.w3.org/1999/xlink" x="0px" y="0px"
	 viewBox="0 0 18 16" style="enable-background:new 0 0 18 16;" xml:space="preserve">
<style type="text/css">
	.st0{fill:#FFFFFF;}
</style>
<g>
	<path class="st0" d="M0.3,4.8c0.1,0,0.3-0.1,0.3-0.3V1.3c0-0.3,0.3-0.6,0.6-0.6h8.2c0.3,0,0.6,0.3,0.6,0.6v0.8
		c0,0.1,0.1,0.3,0.3,0.3s0.3-0.1,0.3-0.3V1.3c0-0.6-0.5-1.1-1.1-1.1H1.1C0.5,0.2,0,0.7,0,1.3v3.2C0,4.6,0.1,4.8,0.3,4.8L0.3,4.8z
		 M0.3,4.8"/>
	<path class="st0" d="M17.7,10.8c0.1,0,0.3-0.1,0.3-0.3V7.2c0-0.6-0.5-1.1-1.1-1.1h-6.4V3.3c0-0.1-0.1-0.3-0.3-0.3S9.9,3.2,9.9,3.3
		v2.8H9.2c-0.9,0-1.6,0.7-1.7,1.5H4.6C4.3,7.6,4,7.7,3.8,7.9L2.4,9.4c0,0,0,0,0,0V8.3c0-0.4-0.3-0.7-0.7-0.7H1.1
		C0.8,7.6,0.5,7.3,0.5,7V5.7c0-0.1-0.1-0.3-0.3-0.3C0.1,5.5,0,5.6,0,5.7V7c0,0.6,0.5,1.1,1.1,1.1h0.5c0.1,0,0.1,0.1,0.1,0.1v1.1
		c0,0.3,0.2,0.5,0.5,0.5c0.1,0,0.3-0.1,0.4-0.2l1.5-1.5c0.1-0.1,0.2-0.2,0.4-0.2h2.9v4.8C7.5,13.5,8,14,8.7,14h4.7
		c0.1,0,0.3,0.1,0.4,0.2l1.5,1.5c0.1,0.1,0.2,0.2,0.4,0.2c0.3,0,0.5-0.2,0.5-0.5v-1.1c0-0.1,0.1-0.1,0.1-0.1h0.5
		c0.6,0,1.1-0.5,1.1-1.1v-1.1c0-0.1-0.1-0.3-0.3-0.3c-0.1,0-0.3,0.1-0.3,0.3v1.1c0,0.3-0.3,0.6-0.6,0.6h-0.5c-0.4,0-0.7,0.3-0.7,0.7
		v1.1c0,0,0,0,0,0l-1.5-1.5c-0.2-0.2-0.5-0.3-0.8-0.3H8.7c-0.3,0-0.6-0.3-0.6-0.6V7.7c0-0.6,0.5-1.1,1.1-1.1h7.7
		c0.3,0,0.6,0.3,0.6,0.6v3.3C17.5,10.7,17.6,10.8,17.7,10.8L17.7,10.8z M17.7,10.8"/>
</g>
<g>
	<path class="st0" d="M3.1,2.2h1.6h0.4c0,0,0.1,0,0.1,0c0,0,0.1,0,0.1,0c0,0,0,0,0,0c0,0,0,0,0,0c0,0,0,0.1,0,0.1s0,0.1,0,0.1
		c0,0,0,0.1-0.1,0.1s-0.1,0-0.2,0H4.7H3.8c-0.1,0-0.1,0-0.2,0c-0.1,0-0.1,0-0.2,0c0,0-0.1,0.1-0.1,0.1c0,0,0,0.1,0,0.2v0.5
		c0,0,0,0.1,0,0.1c0,0,0,0.1,0,0.1c0,0,0,0.1,0.1,0.1c0,0,0,0,0.1,0h0c0,0,0,0,0,0c0,0,0,0,0,0h0.2h1c0,0,0.1,0,0.1,0
		c0,0,0.1,0,0.1,0c0,0,0.1,0,0.1,0c0,0,0.1,0,0.1,0c0,0,0,0,0,0c0,0,0,0,0,0.1c0,0,0,0.1,0,0.1c0,0,0,0.1,0,0.1c0,0,0,0.1,0,0.1
		c0,0,0,0,0,0s0,0,0,0h0c0,0,0,0,0,0c0,0,0,0-0.1,0H4.9H3.8c0,0-0.1,0-0.1,0c0,0-0.1,0-0.1,0c0,0-0.1,0-0.1,0s0,0-0.1,0.1
		c0,0,0,0,0,0.1c0,0,0,0.1,0,0.1v0.3v0.5c0,0,0,0.1,0,0.1c0,0,0,0.1,0,0.1s0.1,0,0.1,0s0.1,0,0.1,0H4h0.9h0.3c0,0,0.1,0,0.1,0
		s0.1,0,0.1,0c0,0,0.1,0,0.1,0.1c0,0,0,0,0,0c0,0,0,0,0,0.1c0,0,0,0,0,0.1c0,0,0,0,0,0.1c0,0,0,0,0,0.1c0,0,0,0-0.1,0s-0.1,0-0.1,0
		H4.9H3.5H3.2c0,0-0.1,0-0.1,0c0,0-0.1,0-0.1,0c0,0,0,0,0-0.1c0,0,0-0.1,0-0.1V5.2V3.8V2.7V2.4c0,0,0-0.1,0-0.1c0,0,0-0.1,0-0.1
		C3,2.2,3,2.2,3.1,2.2C3.1,2.2,3.1,2.2,3.1,2.2C3.1,2.2,3.1,2.2,3.1,2.2z"/>
	<path class="st0" d="M7.2,3.1c0.2,0,0.4,0,0.5,0.1C7.8,3.3,7.9,3.4,8,3.5c0,0,0,0.1,0,0.1c0,0,0,0.1,0,0.1c0,0.1,0,0.1,0,0.2
		s0,0.1,0,0.2v0.5v0.8c0,0.1,0,0.1,0,0.2c0,0.1,0,0.1-0.1,0.1c0,0,0,0-0.1,0c0,0,0,0-0.1,0c0,0-0.1,0-0.1,0c0,0-0.1,0-0.1,0
		c0,0,0-0.1,0-0.1s0-0.1,0-0.1V5.1V4.3c0-0.1,0-0.2,0-0.3s0-0.2,0-0.2c0-0.1-0.1-0.1-0.1-0.2c-0.1,0-0.1-0.1-0.2-0.1c0,0,0,0-0.1,0
		s0,0-0.1,0c0,0,0,0-0.1,0c0,0-0.1,0-0.1,0c0,0,0,0,0,0c0,0,0,0,0,0c0,0-0.1,0-0.1,0c0,0-0.1,0-0.1,0c0,0,0,0,0,0c0,0,0,0,0,0
		C6.6,3.7,6.5,3.8,6.4,4c0,0,0,0.1,0,0.1s0,0.1,0,0.1c0,0,0,0,0,0s0,0,0,0v0.1c0,0,0,0,0,0c0,0,0,0,0,0v0.1v0.5v0.4c0,0,0,0.1,0,0.1
		c0,0,0,0.1,0,0.1c0,0,0,0-0.1,0c0,0-0.1,0-0.1,0c0,0-0.1,0-0.1,0c0,0,0,0-0.1,0c0,0,0,0,0-0.1c0,0,0-0.1,0-0.1V4.9V3.7V3.4
		c0,0,0-0.1,0-0.1c0,0,0-0.1,0-0.1c0,0,0,0,0,0c0,0,0,0,0.1,0s0.1,0,0.1,0c0,0,0.1,0,0.1,0c0,0,0,0,0.1,0c0,0,0.1,0.1,0,0.1
		c0,0,0,0.1,0,0.1c0,0,0,0,0,0.1c0,0,0.1,0,0.1,0c0,0,0.1-0.1,0.1-0.1c0,0,0.1-0.1,0.1-0.1s0.1-0.1,0.2-0.1c0,0,0.1,0,0.1,0
		s0.1,0,0.1,0C7.1,3.1,7.1,3.1,7.2,3.1C7.1,3.1,7.2,3.1,7.2,3.1z"/>
</g>
<g>
	<path class="st0" d="M13.8,11.5C13.8,11.5,13.8,11.5,13.8,11.5c0,0.1,0,0.1,0,0.1c0,0,0,0,0,0.1c0,0,0,0,0,0c0,0,0,0-0.1,0
		c0,0,0,0-0.1,0c0,0-0.1,0-0.1,0s-0.1,0-0.1,0c0,0-0.1-0.1-0.1-0.1c0-0.1,0-0.1,0-0.1c0-0.1-0.1-0.2-0.1-0.3c0-0.1-0.1-0.2-0.1-0.3
		c0,0,0-0.1,0-0.1s0-0.1,0-0.1c0,0,0,0,0-0.1c0,0,0,0-0.1,0c0,0,0,0-0.1,0c0,0,0,0-0.1,0h-0.9c0,0-0.1,0-0.1,0c0,0-0.1,0-0.1,0
		s-0.1,0-0.1,0c0,0,0,0-0.1,0c0,0,0,0.1-0.1,0.1c0,0,0,0.1,0,0.1c0,0.1-0.1,0.2-0.1,0.2s-0.1,0.2-0.1,0.2c0,0,0,0,0,0.1
		c0,0,0,0.1,0,0.1c0,0,0,0.1,0,0.1c0,0,0,0,0,0c0,0-0.1,0-0.1,0c0,0-0.1,0-0.1,0c0,0-0.1,0-0.1,0c0,0,0,0-0.1,0c0,0,0,0,0,0
		s0,0,0-0.1c0,0,0,0,0-0.1c0,0,0,0,0,0c0-0.1,0.1-0.2,0.1-0.3s0.1-0.2,0.1-0.3c0-0.1,0.1-0.1,0.1-0.2s0.1-0.1,0.1-0.2
		c0.1-0.2,0.2-0.5,0.3-0.7c0.1-0.2,0.2-0.5,0.3-0.7c0-0.1,0.1-0.2,0.1-0.3c0-0.1,0.1-0.2,0.1-0.3c0,0,0-0.1,0-0.1c0,0,0-0.1,0.1-0.1
		c0,0,0,0,0.1,0c0,0,0,0,0,0c0,0,0,0,0,0c0.1,0,0.1,0,0.2,0c0.1,0,0.1,0,0.2,0c0,0,0,0.1,0.1,0.1c0,0,0,0.1,0,0.1
		c0,0.1,0.1,0.2,0.1,0.2c0,0.1,0.1,0.2,0.1,0.2c0,0.1,0.1,0.1,0.1,0.2c0,0.1,0.1,0.1,0.1,0.2c0.1,0.2,0.2,0.5,0.3,0.7
		c0.1,0.2,0.2,0.5,0.3,0.7c0,0,0,0.1,0,0.1c0,0,0,0.1,0,0.1c0,0.1,0.1,0.2,0.1,0.3C13.7,11.3,13.7,11.4,13.8,11.5z M12.7,10.3
		C12.7,10.3,12.7,10.2,12.7,10.3c0.1-0.1,0.1-0.1,0.1-0.1s0-0.1,0-0.1s0-0.1,0-0.1c0,0,0,0,0,0c0,0,0,0,0,0c0,0,0-0.1,0-0.1
		s0-0.1,0-0.1c0-0.1-0.1-0.2-0.1-0.4S12.4,9.1,12.4,9c0,0,0-0.1,0-0.1s0-0.1,0-0.1c0,0,0,0,0,0c0,0,0,0-0.1,0c0,0,0,0,0,0
		c0,0,0,0,0,0c0,0,0,0,0,0.1c0,0,0,0,0,0.1c0,0,0,0.1,0,0.1c0,0,0,0.1,0,0.1c-0.1,0.1-0.1,0.3-0.1,0.4c0,0.1-0.1,0.3-0.1,0.4
		c0,0,0,0,0,0s0,0,0,0.1c0,0,0,0.1,0,0.1c0,0,0,0.1,0,0.1c0,0,0,0,0,0.1c0,0,0,0,0,0c0,0,0.1,0,0.1,0c0.1,0,0.1,0,0.1,0h0.5
		c0,0,0.1,0,0.1,0C12.6,10.3,12.7,10.3,12.7,10.3z"/>
	<path class="st0" d="M15.3,9.1c0.1,0,0.1,0,0.1,0.1c0,0,0,0.1,0,0.2c0,0,0,0.1,0,0.1c0,0,0,0.1,0,0.1c0,0,0,0-0.1,0
		c0,0-0.1,0-0.1,0c0,0-0.1,0-0.1,0c0,0-0.1,0-0.1,0c-0.1,0-0.2,0.1-0.2,0.2s-0.1,0.2-0.2,0.3c0,0,0,0.1,0,0.1c0,0,0,0.1,0,0.1
		c0,0,0,0,0,0.1c0,0,0,0,0,0c0,0,0,0.1,0,0.1c0,0.1,0,0.1,0,0.1v0.6c0,0,0,0.1,0,0.1s0,0.1,0,0.1c0,0,0,0.1,0,0.1c0,0,0,0,0,0.1
		c0,0,0,0-0.1,0c0,0-0.1,0-0.1,0h-0.1c0,0,0,0,0,0c0,0,0,0,0,0c0,0,0-0.1,0-0.1c0,0,0-0.1,0-0.1v-0.4V9.7V9.4c0,0,0-0.1,0-0.1
		c0,0,0-0.1,0-0.1c0,0,0,0,0.1,0c0,0,0.1,0,0.1,0c0,0,0.1,0,0.1,0c0,0,0.1,0,0.1,0c0,0,0,0,0.1,0.1s0,0.1,0,0.1s0,0.1,0,0.1
		c0,0,0,0.1,0,0.1c0,0,0,0,0,0s0,0,0,0c0,0,0.1,0,0.1,0s0-0.1,0.1-0.1l0,0c0,0,0.1-0.1,0.1-0.1c0.1,0,0.1-0.1,0.1-0.1
		c0,0,0.1,0,0.1,0c0,0,0.1,0,0.1,0C15.3,9.1,15.3,9.1,15.3,9.1C15.3,9.1,15.3,9.1,15.3,9.1z"/>
</g>
</svg>
